<?xml version="1.0" encoding="UTF-8"?>
<svg id="Layer_2" xmlns="http://www.w3.org/2000/svg" version="1.1" viewBox="0 0 390.2 391">
  <!-- Generator: Adobe Illustrator 29.1.0, SVG Export Plug-In . SVG Version: 2.1.0 Build 142)  -->
  <defs>
    <style>
      .st0 {
        fill: #fff;
      }
    </style>
  </defs>
  <g id="v8">
    <path class="st0" d="M250.2,140h-111v111h111v-111h0Z"/>
    <path class="st0" d="M250.2,279h-111v111h111v-111h0Z"/>
    <path class="st0" d="M389.2,140h-111v111h111v-111h0Z"/>
    <path class="st0" d="M389.2,279h-111v111h111v-111h0Z"/>
    <path class="st0" d="M112,140H1v111h111v-111h0Z"/>
    <path class="st0" d="M250.2,1h-111v111h111V1h0Z"/>
    <path class="st0" d="M389.2,1h-111v111h111V1h0Z"/>
    <path class="st0" d="M112,1H1v111h111V1h0Z"/>
    <path class="st0" d="M112,279H1v111h111v-111h0Z"/>
  </g>
</svg>