<?xml version="1.0" encoding="UTF-8"?>
<svg id="Layer_2" data-name="Layer 2" xmlns="http://www.w3.org/2000/svg" viewBox="0 0 162.18 22.91">
  <defs>
    <style>
      .cls-1 {
        fill: none;
        stroke: #231f20;
        stroke-miterlimit: 10;
        stroke-width: .25px;
      }
    </style>
  </defs>
  <g id="Tabs_nav" data-name="Tabs nav">
    <g>
      <path class="cls-1" d="M.12,1.8C.12,1.12.64.57,1.36.57h6.88c.65,0,1.2.55,1.2,1.2s-.55,1.2-1.2,1.2H2.66v8.01h4.69c.65,0,1.2.55,1.2,1.2s-.55,1.2-1.2,1.2H2.66v7.91c0,.69-.58,1.27-1.27,1.27s-1.27-.58-1.27-1.27V1.8Z"/>
      <path class="cls-1" d="M13.68,22.34c-.72,0-1.23-.55-1.23-1.23V1.6c0-.69.58-1.27,1.27-1.27s1.27.58,1.27,1.27v18.35h5.2c.65,0,1.2.55,1.2,1.2s-.55,1.2-1.2,1.2h-6.5Z"/>
      <path class="cls-1" d="M31.55,1.6c0-.69.58-1.27,1.27-1.27s1.27.58,1.27,1.27v15.84c0,3.02-2.47,5.34-5.48,5.34s-5.48-2.33-5.48-5.34V1.6c0-.69.58-1.27,1.27-1.27s1.27.58,1.27,1.27v15.84c0,1.61,1.34,2.95,2.95,2.95s2.95-1.34,2.95-2.95V1.6h-.02Z"/>
      <path class="cls-1" d="M43.26,14.23l-3.59,7.63c-.27.62-1.06.89-1.68.58-.62-.27-.89-1.06-.58-1.68l4.45-9.31-4.45-9.31c-.31-.62-.03-1.41.58-1.68.62-.31,1.41-.03,1.68.58l3.59,7.67,3.59-7.67c.27-.62,1.06-.89,1.68-.58.62.27.89,1.06.58,1.68l-4.48,9.31,4.48,9.31c.31.62.03,1.41-.58,1.68-.62.31-1.41.03-1.68-.58l-3.59-7.63Z"/>
      <path class="cls-1" d="M60.85,13.44h-4.1c-.65,0-1.2-.55-1.2-1.2s.55-1.2,1.2-1.2h4.1v-5.58c0-1.61-1.34-2.95-2.95-2.95s-2.95,1.34-2.95,2.95v15.84c0,.69-.58,1.27-1.27,1.27s-1.27-.58-1.27-1.27V5.46c0-3.02,2.47-5.34,5.48-5.34s5.48,2.33,5.48,5.34v15.84c0,.69-.58,1.27-1.27,1.27s-1.27-.58-1.27-1.27v-7.87h.02Z"/>
      <path class="cls-1" d="M79.3,1.6c0-.69.58-1.27,1.27-1.27s1.27.58,1.27,1.27v17.08c0,2.33-1.92,4.1-4.24,4.1s-4.24-1.78-4.24-4.1V4.23c0-.96-.75-1.71-1.71-1.71s-1.71.75-1.71,1.71v17.08c0,.69-.58,1.27-1.27,1.27s-1.27-.58-1.27-1.27V4.23c0-2.33,1.92-4.1,4.24-4.1s4.24,1.78,4.24,4.1v14.45c0,.96.75,1.71,1.71,1.71s1.71-.75,1.71-1.71V1.6Z"/>
      <path class="cls-1" d="M87.14,22.34c-.72,0-1.23-.55-1.23-1.23V1.8c0-.69.51-1.23,1.23-1.23h4.17c3.15,0,5.44,2.33,5.44,5.51v10.75c0,3.19-2.3,5.51-5.44,5.51h-4.17ZM94.23,6.01c0-1.71-1.2-3.05-2.91-3.05h-2.88v16.97h2.88c1.71,0,2.91-1.34,2.91-3.05V6.01Z"/>
      <path class="cls-1" d="M100.7,1.8c0-.69.51-1.23,1.23-1.23h6.88c.65,0,1.2.55,1.2,1.2s-.55,1.2-1.2,1.2h-5.58v8.01h4.69c.65,0,1.2.55,1.2,1.2s-.55,1.2-1.2,1.2h-4.69v7.91c0,.69-.58,1.27-1.27,1.27s-1.27-.58-1.27-1.27V1.8Z"/>
      <path class="cls-1" d="M112.34,5.46c0-3.02,2.47-5.34,5.48-5.34s5.48,2.33,5.48,5.34v11.98c0,3.02-2.47,5.34-5.48,5.34s-5.48-2.33-5.48-5.34V5.46ZM120.76,5.46c0-1.61-1.34-2.95-2.95-2.95s-2.95,1.34-2.95,2.95v11.98c0,1.61,1.34,2.95,2.95,2.95s2.95-1.34,2.95-2.95V5.46Z"/>
      <path class="cls-1" d="M130.89,13.58c-.82-1.17-.31-2.54.99-2.54h.86c1.75,0,2.91-1.37,2.91-3.08v-1.92c0-1.71-1.17-3.08-2.91-3.08h-2.98v18.35c0,.69-.58,1.27-1.27,1.27s-1.27-.58-1.27-1.27V1.84c0-.72.55-1.27,1.23-1.27h4.28c3.18,0,5.44,2.36,5.44,5.51v1.85c0,2.84-1.85,4.89-4.55,5.27l5.27,7.39c.41.58.21,1.34-.34,1.71-.55.41-1.34.31-1.75-.27l-5.92-8.46h0Z"/>
      <path class="cls-1" d="M159.54,4.16c0-.89-.75-1.65-1.65-1.65s-1.65.75-1.65,1.65v14.58c0,2.3-1.89,4.04-4.17,4.04s-4.17-1.75-4.17-4.04V4.16c0-.89-.75-1.65-1.65-1.65s-1.65.75-1.65,1.65v17.15c0,.69-.58,1.27-1.27,1.27s-1.27-.58-1.27-1.27V4.16c0-2.3,1.89-4.04,4.17-4.04s4.17,1.75,4.17,4.04v14.58c0,.89.75,1.65,1.65,1.65s1.65-.75,1.65-1.65V4.16c0-2.3,1.89-4.04,4.17-4.04s4.17,1.75,4.17,4.04v17.15c0,.69-.58,1.27-1.27,1.27s-1.27-.58-1.27-1.27V4.16h.02Z"/>
    </g>
  </g>
</svg>