<?xml version="1.0" encoding="UTF-8"?>
<svg id="Layer_2" data-name="Layer 2" xmlns="http://www.w3.org/2000/svg" viewBox="0 0 9 14.11">
  <defs>
    <style>
      .cls-1 {
        fill: #3a3d36;
      }
    </style>
  </defs>
  <g id="v9">
    <path class="cls-1" d="M7.42.92c0-.43.36-.79.79-.79s.79.36.79.79v10.64c0,1.45-1.2,2.56-2.64,2.56s-2.64-1.11-2.64-2.56V2.56c0-.6-.47-1.07-1.07-1.07s-1.07.47-1.07,1.07v10.64c0,.43-.36.79-.79.79s-.79-.36-.79-.79V2.56C0,1.1,1.2,0,2.64,0s2.64,1.11,2.64,2.56v9c0,.6.47,1.07,1.07,1.07s1.07-.47,1.07-1.07V.92Z"/>
  </g>
</svg>