<?xml version="1.0" encoding="UTF-8"?>
<svg id="Layer_2" data-name="Layer 2" xmlns="http://www.w3.org/2000/svg" viewBox="0 0 89.04 139.2">
  <defs>
    <style>
      .cls-1 {
        fill: none;
        stroke: #3a3d36;
        stroke-miterlimit: 10;
        stroke-width: .76px;
      }
    </style>
  </defs>
  <g id="Layer_1-2" data-name="Layer 1">
    <path class="cls-1" d="M73.16,9.39c0-4.19,3.56-7.75,7.75-7.75s7.75,3.56,7.75,7.75v104.35c0,14.24-11.73,25.08-25.92,25.08s-25.92-10.89-25.92-25.08V25.46c0-5.86-4.61-10.47-10.47-10.47s-10.47,4.61-10.47,10.47v104.35c0,4.19-3.56,7.75-7.75,7.75s-7.75-3.56-7.75-7.75V25.46C.38,11.22,12.11.38,26.3.38s25.92,10.89,25.92,25.08v88.28c0,5.86,4.61,10.47,10.47,10.47s10.47-4.61,10.47-10.47V9.39Z"/>
  </g>
</svg>