<?xml version="1.0" encoding="UTF-8"?>
<svg id="Layer_2" xmlns="http://www.w3.org/2000/svg" version="1.1" viewBox="0 0 89.3 139.4">
  <!-- Generator: Adobe Illustrator 30.5.1, SVG Export Plug-In . SVG Version: 2.1.4 Build 3)  -->
  <defs>
    <style>
      .st0 {
        fill: none;
        stroke: #3a3d36;
        stroke-miterlimit: 10;
      }
    </style>
  </defs>
  <g id="Layer_1-2">
    <path class="st0" d="M73.3,9.5c0-4.2,3.6-7.8,7.8-7.8s7.8,3.6,7.8,7.8v104.3c0,14.2-11.7,25.1-25.9,25.1s-25.9-10.9-25.9-25.1V25.6c0-5.9-4.6-10.5-10.5-10.5s-10.5,4.6-10.5,10.5v104.3c0,4.2-3.6,7.8-7.8,7.8s-7.8-3.6-7.8-7.8V25.6c0-14.2,11.7-25.1,25.9-25.1s25.9,10.9,25.9,25.1v88.3c0,5.9,4.6,10.5,10.5,10.5s10.5-4.6,10.5-10.5V9.5Z"/>
  </g>
</svg>