<?xml version="1.0" encoding="UTF-8"?>
<svg id="Layer_2" data-name="Layer 2" xmlns="http://www.w3.org/2000/svg" viewBox="0 0 103.89 15.22">
  <defs>
    <style>
      .cls-1 {
        fill: #e95536;
      }
    </style>
  </defs>
  <g id="Logo_sks" data-name="Logo sks">
    <g>
      <path class="cls-1" d="M0,.99C0,.6.3.3.69.3h4.65c.32,0,.6.28.6.6s-.28.6-.6.6H1.24v5.98h3.4c.32,0,.6.28.6.6s-.28.6-.6.6H1.24v5.77c0,.34-.28.62-.62.62s-.62-.28-.62-.62V.99Z"/>
      <path class="cls-1" d="M8.74,14.92c-.39,0-.69-.3-.69-.69V.78c0-.34.28-.62.62-.62s.62.28.62.62v12.95h3.86c.32,0,.6.28.6.6s-.28.6-.6.6h-4.42Z"/>
      <path class="cls-1" d="M20.56.78c0-.34.28-.62.62-.62s.62.28.62.62v10.85c0,2.12-1.38,3.59-3.45,3.59s-3.45-1.47-3.45-3.59V.78c0-.34.28-.62.62-.62s.62.28.62.62v10.9c0,1.36.87,2.35,2.21,2.35s2.21-.99,2.21-2.35V.78Z"/>
      <path class="cls-1" d="M27.9,8.99l-2.74,5.7c-.14.3-.51.44-.83.28-.3-.14-.44-.51-.28-.83l3.15-6.58-3.13-6.53c-.14-.3-.02-.67.3-.83.3-.14.67-.02.83.3l2.69,5.61,2.69-5.61c.16-.32.53-.44.83-.3.32.16.44.53.3.83l-3.13,6.53,3.15,6.58c.16.32.02.69-.28.83-.32.16-.69.02-.83-.28l-2.74-5.7Z"/>
      <path class="cls-1" d="M39.65,8.67h-3.36c-.32,0-.6-.28-.6-.6s.28-.6.6-.6h3.36v-3.93c0-1.36-.87-2.35-2.21-2.35s-2.21.99-2.21,2.35v10.9c0,.34-.28.62-.62.62s-.62-.28-.62-.62V3.59c0-2.12,1.38-3.59,3.45-3.59s3.45,1.47,3.45,3.59v10.85c0,.34-.28.62-.62.62s-.62-.28-.62-.62v-5.77Z"/>
      <path class="cls-1" d="M51.33.78c0-.34.28-.62.62-.62s.62.28.62.62v11.82c0,1.45-1.08,2.62-2.53,2.62s-2.53-1.17-2.53-2.62V2.58c0-.76-.53-1.38-1.29-1.38s-1.29.62-1.29,1.38v11.87c0,.34-.28.62-.62.62s-.62-.28-.62-.62V2.62c0-1.45,1.08-2.62,2.53-2.62s2.53,1.17,2.53,2.62v10.03c0,.76.53,1.38,1.29,1.38s1.29-.62,1.29-1.38V.78Z"/>
      <path class="cls-1" d="M56.12,14.92c-.39,0-.69-.3-.69-.69V.99c0-.39.3-.69.69-.69h2.62c2.07,0,3.45,1.52,3.45,3.59v7.45c0,2.07-1.38,3.59-3.45,3.59h-2.62ZM60.95,3.84c0-1.31-.87-2.35-2.21-2.35h-2.07v12.23h2.07c1.33,0,2.21-1.01,2.21-2.35V3.84Z"/>
      <path class="cls-1" d="M64.95.99c0-.39.3-.69.69-.69h4.65c.32,0,.6.28.6.6s-.28.6-.6.6h-4.09v5.98h3.4c.32,0,.6.28.6.6s-.28.6-.6.6h-3.4v5.77c0,.34-.28.62-.62.62s-.62-.28-.62-.62V.99Z"/>
      <path class="cls-1" d="M72.56,3.59c0-2.07,1.38-3.59,3.45-3.59s3.45,1.52,3.45,3.59v8.05c0,2.07-1.38,3.59-3.45,3.59s-3.45-1.52-3.45-3.59V3.59ZM78.22,3.54c0-1.31-.87-2.35-2.21-2.35s-2.21,1.03-2.21,2.35v8.14c0,1.33.87,2.35,2.21,2.35s2.21-1.01,2.21-2.35V3.54Z"/>
      <path class="cls-1" d="M84.11,8.58c-.39-.55-.07-1.1.44-1.1h1.1c1.33,0,2.23-1.04,2.23-2.35v-1.29c0-1.31-.87-2.35-2.21-2.35h-2.21v12.95c0,.34-.28.62-.62.62s-.62-.28-.62-.62V.99c0-.39.3-.69.69-.69h2.76c2.07,0,3.45,1.52,3.45,3.59v1.2c0,2.07-1.38,3.56-3.45,3.59l3.79,5.4c.18.28.14.64-.16.87-.28.18-.67.12-.85-.16l-4.35-6.21Z"/>
      <path class="cls-1" d="M102.65,2.46c0-.69-.55-1.26-1.24-1.26s-1.24.57-1.24,1.26v10.3c0,1.36-1.08,2.46-2.44,2.46s-2.44-1.1-2.44-2.46V2.46c0-.69-.55-1.26-1.24-1.26s-1.24.57-1.24,1.26v11.98c0,.34-.28.62-.62.62s-.62-.28-.62-.62V2.51c0-1.38,1.1-2.51,2.48-2.51s2.48,1.13,2.48,2.51v10.3c0,.67.53,1.22,1.2,1.22s1.2-.55,1.2-1.22V2.51c0-1.38,1.1-2.51,2.48-2.51s2.48,1.13,2.48,2.51v11.93c0,.34-.28.62-.62.62s-.62-.28-.62-.62V2.46Z"/>
    </g>
  </g>
</svg>