<?xml version="1.0" encoding="UTF-8"?>
<svg id="Layer_2" xmlns="http://www.w3.org/2000/svg" version="1.1" viewBox="0 0 250.7 35.1">
  <!-- Generator: Adobe Illustrator 29.1.0, SVG Export Plug-In . SVG Version: 2.1.0 Build 142)  -->
  <defs>
    <style>
      .st0 {
        fill: #e95536;
      }
    </style>
  </defs>
  <g id="Logo_sks">
    <g>
      <path class="st0" d="M0,2.6C0,1.5.8.7,1.9.7h10.6c1,0,1.9.8,1.9,1.8s-.9,1.8-1.9,1.8H3.9v12.4h7.3c1,0,1.9.9,1.9,1.9s-.9,1.9-1.9,1.9H3.9v12.2c0,1.1-.9,2-2,2s-2-.9-2-2V2.6Z"/>
      <path class="st0" d="M21,34.4c-1.1,0-1.9-.8-1.9-1.9V2.3c0-1.1.9-2,2-2s2,.9,2,2v28.4h8.1c1,0,1.8.9,1.8,1.8s-.8,1.8-1.9,1.8h-10.1Z"/>
      <path class="st0" d="M48.7,2.3c0-1.1.9-2,2-2s2,.9,2,2v24.5c0,4.7-3.8,8.3-8.5,8.3s-8.5-3.6-8.5-8.3V2.3c0-1.1.9-2,2-2s2,.9,2,2v24.5c0,2.5,2.1,4.6,4.6,4.6s4.6-2.1,4.6-4.6V2.3Z"/>
      <path class="st0" d="M66.8,21.8l-5.6,11.8c-.4,1-1.6,1.4-2.6.9-1-.4-1.4-1.6-.9-2.6l6.9-14.4-6.9-14.4c-.5-1,0-2.2.9-2.6,1-.5,2.2,0,2.6.9l5.6,11.9,5.6-11.9c.4-.9,1.6-1.4,2.6-.9.9.4,1.4,1.6.9,2.6l-6.9,14.4,6.9,14.4c.5.9,0,2.2-.9,2.6-.9.5-2.2,0-2.6-.9,0,0-5.6-11.8-5.6-11.8Z"/>
      <path class="st0" d="M94,20.6h-6.4c-1,0-1.8-.9-1.8-1.9s.8-1.9,1.8-1.9h6.4v-8.6c0-2.5-2.1-4.6-4.6-4.6s-4.6,2.1-4.6,4.6v24.5c0,1.1-.9,2-2,2s-2-.9-2-2V8.3c0-4.7,3.8-8.3,8.5-8.3s8.5,3.6,8.5,8.3v24.5c0,1.1-.9,2-2,2s-2-.9-2-2v-12.2h0Z"/>
      <path class="st0" d="M122.6,2.3c0-1.1.9-2,2-2s2,.9,2,2v26.4c0,3.6-3,6.4-6.6,6.4s-6.6-2.8-6.6-6.4V6.4c0-1.5-1.2-2.7-2.7-2.7s-2.7,1.2-2.7,2.7v26.4c0,1.1-.9,2-2,2s-2-.9-2-2V6.4c0-3.6,3-6.4,6.6-6.4s6.6,2.8,6.6,6.4v22.4c0,1.5,1.2,2.6,2.7,2.6s2.7-1.2,2.7-2.6V2.3Z"/>
      <path class="st0" d="M134.7,34.4c-1.1,0-1.9-.8-1.9-1.9V2.6c0-1.1.8-1.9,1.9-1.9h6.5c4.9,0,8.4,3.6,8.4,8.5v16.6c0,4.9-3.6,8.5-8.4,8.5h-6.5ZM145.7,9.1c0-2.7-1.9-4.7-4.5-4.7h-4.4v26.3h4.4c2.6,0,4.5-2.1,4.5-4.7V9.1Z"/>
      <path class="st0" d="M155.7,2.6c0-1.1.8-1.9,1.9-1.9h10.6c1,0,1.9.9,1.9,1.9s-.9,1.8-1.9,1.8h-8.6v12.4h7.3c1,0,1.9.9,1.9,1.9s-.9,1.9-1.9,1.9h-7.3v12.2c0,1.1-.9,2-2,2s-2-.9-2-2V2.6h0Z"/>
      <path class="st0" d="M173.7,8.3c0-4.7,3.8-8.3,8.5-8.3s8.5,3.6,8.5,8.3v18.5c0,4.7-3.8,8.3-8.5,8.3s-8.5-3.6-8.5-8.3V8.3ZM186.8,8.3c0-2.5-2.1-4.6-4.6-4.6s-4.6,2.1-4.6,4.6v18.5c0,2.5,2.1,4.6,4.6,4.6s4.6-2.1,4.6-4.6V8.3Z"/>
      <path class="st0" d="M202.5,20.8c-1.3-1.8-.5-3.9,1.5-3.9h1.3c2.7,0,4.5-2.1,4.5-4.8v-3c0-2.7-1.8-4.8-4.5-4.8h-4.6v28.4c0,1.1-.9,2-2,2s-2-.9-2-2V2.7c0-1.1.9-2,1.9-2h6.6c4.9,0,8.4,3.7,8.4,8.5v2.9c0,4.4-2.9,7.6-7.1,8.2l8.2,11.5c.6.9.3,2.1-.5,2.7-.9.6-2.1.5-2.7-.4,0,0-9.2-13.1-9.2-13.1Z"/>
      <path class="st0" d="M246.8,6.2c0-1.4-1.2-2.5-2.5-2.5s-2.5,1.2-2.5,2.5v22.6c0,3.6-2.9,6.3-6.5,6.3s-6.5-2.7-6.5-6.2V6.2c0-1.4-1.2-2.5-2.5-2.5s-2.5,1.2-2.5,2.5v26.5c0,1.1-.9,2-2,2s-2-.9-2-2V6.2c0-3.5,2.9-6.2,6.5-6.2s6.5,2.7,6.5,6.2v22.6c0,1.4,1.2,2.5,2.5,2.5s2.5-1.2,2.5-2.5V6.2c0-3.5,2.9-6.2,6.5-6.2s6.5,2.7,6.5,6.2v26.5c0,1.1-.9,2-2,2s-2-.9-2-2V6.2h0Z"/>
    </g>
  </g>
</svg>
