<?xml version="1.0" encoding="UTF-8"?>
<svg id="Layer_2" data-name="Layer 2" xmlns="http://www.w3.org/2000/svg" viewBox="0 0 58.19 53.02">
  <defs>
    <style>
      .cls-1 {
        fill: #e95536;
      }
    </style>
  </defs>
  <g id="v3">
    <g>
      <path class="cls-1" d="M11.15,0v.78H1.09v4.68h8.06v3.7H1.09v5.46H.31V0h10.84Z"/>
      <path class="cls-1" d="M27.28,10.9v3.72h-11.13V0h.78v10.9h10.35Z"/>
      <path class="cls-1" d="M33.48,14.13c-.9-.53-1.62-1.25-2.15-2.15-.53-.9-.8-1.89-.8-2.95V0h11.8v9.03c0,1.06-.27,2.05-.8,2.95-.53.9-1.25,1.62-2.15,2.15-.9.53-1.89.8-2.95.8s-2.05-.27-2.95-.8Z"/>
      <path class="cls-1" d="M45.78,14.62l5.73-7.31-5.73-7.31h12.41l-5.73,7.31,5.73,7.31h-12.41ZM51.97,6.68l4.64-5.9h-9.26l4.62,5.9ZM56.61,13.84l-4.64-5.9-4.62,5.9h9.26Z"/>
      <path class="cls-1" d="M0,19h12.73v14.62H0v-14.62ZM11.56,19.78H.68v12.52l10.89-12.52ZM1.15,32.84h10.89v-12.52L1.15,32.84Z"/>
      <path class="cls-1" d="M20.49,19h.82l6.01,14.62h-.84l-1.97-4.83h-7.2l-2,4.83h-.82l6.01-14.62ZM17.61,28.03h6.57l-3.3-8.02-3.28,8.02Z"/>
      <path class="cls-1" d="M30.74,33.6v-14.62h.82l10.21,9.93v-9.93h.78v14.62h-11.8Z"/>
      <path class="cls-1" d="M46.72,33.62v-14.62h5.44c1.06,0,2.05.27,2.95.8.9.53,1.62,1.25,2.15,2.15.53.9.8,1.89.8,2.95v2.81c0,1.06-.27,2.05-.8,2.95-.53.9-1.25,1.62-2.15,2.15-.9.53-1.89.8-2.95.8h-5.44Z"/>
      <path class="cls-1" d="M.5,38h10.9v.78H1.28v6.13h8.19v.78H1.28v6.93h-.78v-14.62Z"/>
      <path class="cls-1" d="M15.62,40.65c.55-.94,1.28-1.68,2.22-2.23.93-.55,1.95-.82,3.06-.82s2.12.27,3.06.82c.93.55,1.67,1.29,2.22,2.23.55.94.82,1.95.82,3.05v3.23c0,1.09-.27,2.11-.82,3.04-.55.94-1.28,1.68-2.22,2.23s-1.95.82-3.06.82-2.12-.27-3.06-.82c-.93-.55-1.67-1.29-2.22-2.23-.55-.94-.82-1.95-.82-3.04v-3.23c0-1.09.27-2.11.82-3.05ZM19.25,48.65c.42.48.97.71,1.64.71s1.2-.24,1.62-.71c.42-.48.63-1.05.63-1.72v-3.25c0-.69-.21-1.26-.63-1.72s-.96-.69-1.62-.69-1.22.23-1.64.69-.63,1.04-.63,1.72v3.25c0,.67.21,1.25.63,1.72Z"/>
      <path class="cls-1" d="M42.48,52.62h-11.23v-14.62h5.69c1.22,0,2.21.22,2.98.65.76.42,1.34.99,1.76,1.72.42.73.63,1.53.63,2.42,0,1.09-.34,2.07-1.01,2.93s-1.52,1.43-2.54,1.71l3.72,5.19ZM32.02,39.28v7.54h5.4l-5.4-7.54ZM32.02,51.84h8.99l-3.07-4.26-.65.02h-5.27v4.24ZM32.57,38.78l5.71,7.98c.94-.2,1.71-.67,2.33-1.41.62-.74.92-1.6.92-2.56,0-.77-.19-1.47-.57-2.1-.38-.63-.91-1.11-1.6-1.45-.62-.31-1.42-.46-2.42-.46h-4.39Z"/>
      <path class="cls-1" d="M46.85,52.62h-.78v-14.62h.84l5.1,9.01,5.08-9.01h.78v14.62h-.78v-13.06l-4.73,8.34h-.73l-4.79-8.44v13.17Z"/>
    </g>
  </g>
</svg>