<?xml version="1.0" encoding="UTF-8"?>
<svg id="Layer_2" data-name="Layer 2" xmlns="http://www.w3.org/2000/svg" viewBox="0 0 163.33 22.85">
  <g id="Logo_sks" data-name="Logo sks">
    <g>
      <path d="M0,1.69C0,1,.52.45,1.24.45h6.94c.66,0,1.21.55,1.21,1.21s-.55,1.21-1.21,1.21H2.55v8.08h4.73c.66,0,1.21.55,1.21,1.21s-.55,1.21-1.21,1.21H2.55v7.97c0,.69-.59,1.28-1.28,1.28s-1.28-.59-1.28-1.28V1.69Z"/>
      <path d="M13.67,22.41c-.72,0-1.24-.55-1.24-1.24V1.48c0-.69.59-1.28,1.28-1.28s1.28.59,1.28,1.28v18.5h5.25c.66,0,1.21.55,1.21,1.21s-.55,1.21-1.21,1.21h-6.56Z"/>
      <path d="M31.69,1.48c0-.69.59-1.28,1.28-1.28s1.28.59,1.28,1.28v15.98c0,3.04-2.49,5.39-5.52,5.39s-5.52-2.35-5.52-5.39V1.48c0-.69.59-1.28,1.28-1.28s1.28.59,1.28,1.28v15.98c0,1.62,1.35,2.97,2.97,2.97s2.97-1.35,2.97-2.97V1.48Z"/>
      <path d="M43.5,14.22l-3.63,7.7c-.28.62-1.07.9-1.69.59-.62-.28-.9-1.07-.59-1.69l4.49-9.39-4.49-9.39c-.31-.62-.03-1.42.59-1.69.62-.31,1.42-.03,1.69.59l3.63,7.73,3.62-7.73c.28-.62,1.07-.9,1.69-.59.62.28.9,1.07.59,1.69l-4.52,9.39,4.52,9.39c.31.62.03,1.42-.59,1.69-.62.31-1.42.03-1.69-.59l-3.62-7.7Z"/>
      <path d="M61.24,13.43h-4.14c-.66,0-1.21-.55-1.21-1.21s.55-1.21,1.21-1.21h4.14v-5.63c0-1.62-1.35-2.97-2.97-2.97s-2.97,1.35-2.97,2.97v15.98c0,.69-.59,1.28-1.28,1.28s-1.28-.59-1.28-1.28V5.39c0-3.04,2.49-5.39,5.52-5.39s5.52,2.35,5.52,5.39v15.98c0,.69-.59,1.28-1.28,1.28s-1.28-.59-1.28-1.28v-7.94Z"/>
      <path d="M79.85,1.48c0-.69.59-1.28,1.28-1.28s1.28.59,1.28,1.28v17.23c0,2.35-1.93,4.14-4.28,4.14s-4.28-1.8-4.28-4.14V4.14c0-.97-.76-1.73-1.73-1.73s-1.73.76-1.73,1.73v17.23c0,.69-.59,1.28-1.28,1.28s-1.28-.59-1.28-1.28V4.14c0-2.35,1.93-4.14,4.28-4.14s4.28,1.8,4.28,4.14v14.57c0,.97.76,1.73,1.73,1.73s1.73-.76,1.73-1.73V1.48Z"/>
      <path d="M87.76,22.41c-.72,0-1.24-.55-1.24-1.24V1.69c0-.69.52-1.24,1.24-1.24h4.21c3.18,0,5.49,2.35,5.49,5.56v10.84c0,3.21-2.31,5.56-5.49,5.56h-4.21ZM94.9,5.94c0-1.73-1.21-3.07-2.93-3.07h-2.9v17.12h2.9c1.73,0,2.93-1.35,2.93-3.07V5.94Z"/>
      <path d="M101.43,1.69c0-.69.52-1.24,1.24-1.24h6.94c.66,0,1.21.55,1.21,1.21s-.55,1.21-1.21,1.21h-5.63v8.08h4.73c.66,0,1.21.55,1.21,1.21s-.55,1.21-1.21,1.21h-4.73v7.97c0,.69-.59,1.28-1.28,1.28s-1.28-.59-1.28-1.28V1.69Z"/>
      <path d="M113.16,5.39c0-3.04,2.49-5.39,5.52-5.39s5.52,2.35,5.52,5.39v12.08c0,3.04-2.49,5.39-5.52,5.39s-5.52-2.35-5.52-5.39V5.39ZM121.66,5.39c0-1.62-1.35-2.97-2.97-2.97s-2.97,1.35-2.97,2.97v12.08c0,1.62,1.35,2.97,2.97,2.97s2.97-1.35,2.97-2.97V5.39Z"/>
      <path d="M131.88,13.57c-.83-1.17-.31-2.55,1-2.55h.86c1.76,0,2.93-1.38,2.93-3.11v-1.93c0-1.73-1.17-3.11-2.93-3.11h-3v18.5c0,.69-.59,1.28-1.28,1.28s-1.28-.59-1.28-1.28V1.73c0-.73.55-1.28,1.24-1.28h4.32c3.21,0,5.49,2.38,5.49,5.56v1.86c0,2.87-1.86,4.94-4.59,5.32l5.32,7.46c.41.59.21,1.35-.34,1.73-.55.41-1.35.31-1.76-.28l-5.97-8.53Z"/>
      <path d="M160.77,4.07c0-.9-.76-1.66-1.66-1.66s-1.66.76-1.66,1.66v14.71c0,2.31-1.9,4.07-4.21,4.07s-4.21-1.76-4.21-4.07V4.07c0-.9-.76-1.66-1.66-1.66s-1.66.76-1.66,1.66v17.3c0,.69-.59,1.28-1.28,1.28s-1.28-.59-1.28-1.28V4.07c0-2.31,1.9-4.07,4.21-4.07s4.21,1.76,4.21,4.07v14.71c0,.9.76,1.66,1.66,1.66s1.66-.76,1.66-1.66V4.07c0-2.31,1.9-4.07,4.21-4.07s4.21,1.76,4.21,4.07v17.3c0,.69-.59,1.28-1.28,1.28s-1.28-.59-1.28-1.28V4.07Z"/>
    </g>
  </g>
</svg>