<?xml version="1.0" encoding="UTF-8"?>
<svg id="Layer_2" data-name="Layer 2" xmlns="http://www.w3.org/2000/svg" viewBox="0 0 104.4 51.99">
  <defs>
    <style>
      .cls-1 {
        fill: #e95536;
      }
    </style>
  </defs>
  <g id="v3">
    <g>
      <path class="cls-1" d="M14.86,3.5v.85H3.84v5.13h8.83v4.05H3.84v5.98h-.85V3.5h11.87Z"/>
      <path class="cls-1" d="M32.52,15.43v4.07h-12.19V3.5h.85v11.94h11.34Z"/>
      <path class="cls-1" d="M39.32,18.98c-.99-.58-1.77-1.37-2.36-2.36-.58-.99-.87-2.07-.87-3.23V3.5h12.93v9.89c0,1.17-.29,2.24-.87,3.23-.58.99-1.37,1.78-2.36,2.36-.99.58-2.07.87-3.23.87s-2.24-.29-3.23-.87Z"/>
      <path class="cls-1" d="M52.79,19.5l6.28-8-6.28-8h13.59l-6.28,8,6.28,8h-13.59ZM59.57,10.81l5.08-6.46h-10.14l5.06,6.46ZM64.65,18.65l-5.08-6.46-5.06,6.46h10.14Z"/>
      <path class="cls-1" d="M84.13,19.5h-15.09l7.54-16.35,7.54,16.35ZM70.38,18.65h12.42l-6.21-13.48-6.21,13.48Z"/>
      <path class="cls-1" d="M93.17,3.5h.9l6.58,16.01h-.92l-2.16-5.29h-7.89l-2.19,5.29h-.9l6.58-16.01ZM90.02,13.39h7.2l-3.61-8.79-3.59,8.79Z"/>
      <path class="cls-1" d="M2.28,40.48v-16.01h.9l11.18,10.88v-10.88h.85v16.01H2.28Z"/>
      <path class="cls-1" d="M28.6,25.37c.99.58,1.77,1.37,2.36,2.36s.87,2.07.87,3.23v3.08c0,1.17-.29,2.24-.87,3.23s-1.37,1.78-2.36,2.36c-.99.58-2.07.87-3.23.87h-5.91v-16.01h5.91c1.17,0,2.24.29,3.23.87ZM30.98,30.96c0-1.01-.25-1.95-.76-2.81-.51-.86-1.19-1.54-2.06-2.05-.87-.51-1.81-.76-2.82-.76h-5.04v14.31h5.04c1.01,0,1.95-.25,2.82-.76.87-.51,1.55-1.19,2.06-2.05.51-.86.76-1.79.76-2.81v-3.08Z"/>
      <path class="cls-1" d="M37.24,24.5h11.94v.85h-11.09v6.72h8.97v.85h-8.97v7.59h-.85v-16.01Z"/>
      <path class="cls-1" d="M53.8,27.39c.6-1.03,1.41-1.84,2.43-2.44,1.02-.6,2.13-.9,3.35-.9s2.33.3,3.35.9,1.83,1.41,2.43,2.44.9,2.14.9,3.33v3.54c0,1.2-.3,2.31-.9,3.33s-1.41,1.84-2.43,2.44c-1.02.6-2.13.9-3.35.9s-2.33-.3-3.35-.9c-1.02-.6-1.83-1.41-2.43-2.44s-.9-2.14-.9-3.33v-3.54c0-1.2.3-2.31.9-3.33ZM57.78,36.16c.46.52,1.06.78,1.79.78s1.31-.26,1.77-.78.69-1.15.69-1.89v-3.57c0-.75-.23-1.38-.69-1.89s-1.05-.76-1.77-.76-1.33.25-1.79.76c-.46.51-.69,1.13-.69,1.89v3.57c0,.74.23,1.36.69,1.89Z"/>
      <path class="cls-1" d="M83.21,40.5h-12.31v-16.01h6.23c1.33,0,2.42.24,3.27.71.83.46,1.47,1.09,1.93,1.89.46.8.69,1.68.69,2.65,0,1.2-.37,2.27-1.1,3.21-.74.94-1.66,1.57-2.78,1.88l4.07,5.68ZM71.76,25.9v8.26h5.91l-5.91-8.26ZM71.76,39.65h9.84l-3.36-4.67-.71.02h-5.77v4.65ZM72.36,25.35l6.26,8.74c1.03-.21,1.88-.73,2.55-1.54.67-.81,1.01-1.75,1.01-2.81,0-.84-.21-1.61-.62-2.3-.41-.69-1-1.22-1.75-1.59-.67-.34-1.56-.51-2.65-.51h-4.81Z"/>
      <path class="cls-1" d="M88,40.5h-.85v-16.01h.92l5.59,9.87,5.57-9.87h.85v16.01h-.85v-14.31l-5.17,9.13h-.81l-5.24-9.25v14.42Z"/>
    </g>
  </g>
</svg>