<?xml version="1.0" encoding="UTF-8"?>
<svg id="Layer_2" data-name="Layer 2" xmlns="http://www.w3.org/2000/svg" viewBox="0 0 250.74 35.08">
  <defs>
    <style>
      .cls-1 {
        fill: #d997bb;
      }
    </style>
  </defs>
  <g id="Logo_sks" data-name="Logo sks">
    <g>
      <path class="cls-1" d="M0,2.6C0,1.54.79.69,1.91.69h10.65c1.01,0,1.85.85,1.85,1.85s-.85,1.85-1.85,1.85H3.92v12.4h7.26c1.01,0,1.85.85,1.85,1.85s-.85,1.85-1.85,1.85H3.92v12.24c0,1.06-.9,1.96-1.96,1.96s-1.96-.9-1.96-1.96V2.6Z"/>
      <path class="cls-1" d="M20.99,34.39c-1.11,0-1.91-.85-1.91-1.91V2.28c0-1.06.9-1.96,1.96-1.96s1.96.9,1.96,1.96v28.4h8.05c1.01,0,1.85.85,1.85,1.85s-.85,1.85-1.85,1.85h-10.07Z"/>
      <path class="cls-1" d="M48.65,2.28c0-1.06.9-1.96,1.96-1.96s1.96.9,1.96,1.96v24.54c0,4.66-3.82,8.27-8.48,8.27s-8.48-3.6-8.48-8.27V2.28c0-1.06.9-1.96,1.96-1.96s1.96.9,1.96,1.96v24.54c0,2.49,2.07,4.56,4.56,4.56s4.56-2.07,4.56-4.56V2.28Z"/>
      <path class="cls-1" d="M66.78,21.83l-5.56,11.82c-.42.95-1.64,1.38-2.6.9-.95-.42-1.38-1.64-.9-2.6l6.89-14.41-6.89-14.41c-.48-.95-.05-2.17.9-2.6.95-.48,2.17-.05,2.6.9l5.56,11.87,5.56-11.87c.42-.95,1.64-1.38,2.6-.9.95.42,1.38,1.64.9,2.6l-6.94,14.41,6.94,14.41c.48.95.05,2.17-.9,2.6-.95.48-2.17.05-2.6-.9l-5.56-11.82Z"/>
      <path class="cls-1" d="M94.02,20.61h-6.36c-1.01,0-1.85-.85-1.85-1.85s.85-1.85,1.85-1.85h6.36v-8.64c0-2.49-2.07-4.56-4.56-4.56s-4.56,2.07-4.56,4.56v24.54c0,1.06-.9,1.96-1.96,1.96s-1.96-.9-1.96-1.96V8.27c0-4.66,3.82-8.27,8.48-8.27s8.48,3.6,8.48,8.27v24.54c0,1.06-.9,1.96-1.96,1.96s-1.96-.9-1.96-1.96v-12.19Z"/>
      <path class="cls-1" d="M122.59,2.28c0-1.06.9-1.96,1.96-1.96s1.96.9,1.96,1.96v26.44c0,3.6-2.97,6.36-6.57,6.36s-6.57-2.76-6.57-6.36V6.36c0-1.48-1.17-2.65-2.65-2.65s-2.65,1.17-2.65,2.65v26.44c0,1.06-.9,1.96-1.96,1.96s-1.96-.9-1.96-1.96V6.36c0-3.6,2.97-6.36,6.57-6.36s6.57,2.76,6.57,6.36v22.36c0,1.48,1.17,2.65,2.65,2.65s2.65-1.17,2.65-2.65V2.28Z"/>
      <path class="cls-1" d="M134.72,34.39c-1.11,0-1.91-.85-1.91-1.91V2.6c0-1.06.79-1.91,1.91-1.91h6.47c4.88,0,8.43,3.6,8.43,8.53v16.64c0,4.93-3.55,8.53-8.43,8.53h-6.47ZM145.69,9.12c0-2.65-1.85-4.72-4.5-4.72h-4.45v26.29h4.45c2.65,0,4.5-2.07,4.5-4.72V9.12Z"/>
      <path class="cls-1" d="M155.71,2.6c0-1.06.79-1.91,1.91-1.91h10.65c1.01,0,1.85.85,1.85,1.85s-.85,1.85-1.85,1.85h-8.64v12.4h7.26c1.01,0,1.85.85,1.85,1.85s-.85,1.85-1.85,1.85h-7.26v12.24c0,1.06-.9,1.96-1.96,1.96s-1.96-.9-1.96-1.96V2.6Z"/>
      <path class="cls-1" d="M173.73,8.27c0-4.66,3.82-8.27,8.48-8.27s8.48,3.6,8.48,8.27v18.55c0,4.66-3.82,8.27-8.48,8.27s-8.48-3.6-8.48-8.27V8.27ZM186.77,8.27c0-2.49-2.07-4.56-4.56-4.56s-4.56,2.07-4.56,4.56v18.55c0,2.49,2.07,4.56,4.56,4.56s4.56-2.07,4.56-4.56V8.27Z"/>
      <path class="cls-1" d="M202.46,20.83c-1.27-1.8-.48-3.92,1.54-3.92h1.32c2.7,0,4.5-2.12,4.5-4.77v-2.97c0-2.65-1.8-4.77-4.5-4.77h-4.61v28.4c0,1.06-.9,1.96-1.96,1.96s-1.96-.9-1.96-1.96V2.65c0-1.11.85-1.96,1.91-1.96h6.62c4.93,0,8.43,3.66,8.43,8.53v2.86c0,4.4-2.86,7.58-7.05,8.16l8.16,11.45c.64.9.32,2.07-.53,2.65-.85.64-2.07.48-2.7-.42l-9.17-13.09Z"/>
      <path class="cls-1" d="M246.81,6.25c0-1.38-1.17-2.54-2.54-2.54s-2.54,1.17-2.54,2.54v22.58c0,3.55-2.91,6.25-6.47,6.25s-6.47-2.7-6.47-6.25V6.25c0-1.38-1.17-2.54-2.54-2.54s-2.54,1.17-2.54,2.54v26.55c0,1.06-.9,1.96-1.96,1.96s-1.96-.9-1.96-1.96V6.25c0-3.55,2.91-6.25,6.47-6.25s6.47,2.7,6.47,6.25v22.58c0,1.38,1.17,2.54,2.54,2.54s2.54-1.17,2.54-2.54V6.25c0-3.55,2.91-6.25,6.47-6.25s6.47,2.7,6.47,6.25v26.55c0,1.06-.9,1.96-1.96,1.96s-1.96-.9-1.96-1.96V6.25Z"/>
    </g>
  </g>
</svg>
