<svg width="253" height="254" viewBox="0 0 253 254" fill="none" xmlns="http://www.w3.org/2000/svg">
<path fill-rule="evenodd" clip-rule="evenodd" d="M178.867 1.5V74.5H251.5L251.5 251.867L1.49999 251.867L1.5 251.5V74.5V1.5H178.867Z" fill="white"/>
<path d="M178.867 74.5H177.367C177.367 75.3284 178.038 76 178.867 76V74.5ZM178.867 1.5H180.367C180.367 0.671573 179.695 0 178.867 0V1.5ZM251.5 74.5H253C253 74.1022 252.842 73.7206 252.561 73.4393C252.279 73.158 251.898 73 251.5 73V74.5ZM251.5 251.867V253.367C252.328 253.367 253 252.695 253 251.867H251.5ZM1.49999 251.867L-7.7486e-06 251.867C-1.62125e-05 252.265 0.158015 252.646 0.439321 252.928C0.720626 253.209 1.10216 253.367 1.49999 253.367L1.49999 251.867ZM1.5 251.5L3 251.5V251.5H1.5ZM1.5 1.5V0C0.671573 0 0 0.671573 0 1.5L1.5 1.5ZM180.367 74.5V1.5H177.367V74.5H180.367ZM251.5 73H178.867V76H251.5V73ZM253 251.867L253 74.5H250L250 251.867H253ZM1.49999 253.367L251.5 253.367V250.367L1.49999 250.367L1.49999 253.367ZM0 251.5L-7.7486e-06 251.867L2.99999 251.867L3 251.5L0 251.5ZM0 74.5V251.5H3V74.5H0ZM0 1.5V74.5H3V1.5H0ZM178.867 0H1.5V3H178.867V0Z" fill="black"/>
<path d="M251.5 74.1331L178.867 1.5V74.1331H251.5Z" fill="white" stroke="black" stroke-width="3" stroke-linejoin="round"/>
</svg>
