<?xml version="1.0" encoding="UTF-8"?>
<svg id="Layer_2" data-name="Layer 2" xmlns="http://www.w3.org/2000/svg" viewBox="0 0 33.3 35.66">
  <g id="Breadcrumb_nav" data-name="Breadcrumb nav">
    <g>
      <path d="M7.91,35.66C3.54,35.66,0,32.11,0,27.74c0-2.09.83-4.1,2.31-5.59L21.48,3c.29-.25.73-.22.98.08.22.26.22.64,0,.9L3.3,23.14c-2.32,2.32-2.56,6-.55,8.6.17.22.35.42.55.62,2.54,2.55,6.66,2.55,9.21.01,0,0,0,0,.01-.01L31.68,13.2c.27-.27.71-.27.98,0,0,0,0,0,0,0,.27.27.27.71,0,.98l-19.16,19.16c-1.48,1.49-3.49,2.32-5.59,2.32Z"/>
      <path d="M14.59,27.26c-.18,0-.36-.07-.49-.2-.27-.27-.27-.71,0-.98,0,0,0,0,0,0L30.51,9.67c1.7-1.71,1.89-4.4.44-6.33,0-.02,0-.04,0-.06-.12-.17-.26-.33-.41-.47-1.89-1.9-4.97-1.9-6.87,0,0,0,0,0,0,0L3.3,23.14c-.27.27-.71.27-.98,0-.27-.27-.27-.71,0-.98L22.65,1.83c2.44-2.44,6.39-2.44,8.83,0,0,0,0,0,0,0,.2.2.38.41.55.64h0c1.89,2.48,1.65,5.98-.55,8.18L15.07,27.06c-.13.13-.3.2-.49.2Z"/>
      <path d="M9.75,30.49c-2.53,0-4.58-2.06-4.57-4.6,0-1.21.48-2.36,1.33-3.22l12.82-12.81c.27-.27.71-.27.98,0,.27.27.27.71,0,.98h0l-12.81,12.81c-1.24,1.25-1.24,3.27,0,4.52,1.25,1.24,3.27,1.24,4.52,0L30.51,9.67c.27-.27.71-.27.98,0,.27.27.27.71,0,.98,0,0,0,0,0,0L12.99,29.15c-.86.86-2.02,1.34-3.24,1.34Z"/>
    </g>
  </g>
</svg>