<?xml version="1.0" encoding="UTF-8"?>
<svg id="Layer_2" data-name="Layer 2" xmlns="http://www.w3.org/2000/svg" viewBox="0 0 214.07 218.44">
  <defs>
    <style>
      .cls-1 {
        fill: #d796bc;
      }
    </style>
  </defs>
  <g id="v5">
    <g>
      <ellipse class="cls-1" cx="37.06" cy="121.06" rx="36.1" ry="28.16"/>
      <ellipse class="cls-1" cx="35.62" cy="183.8" rx="35.62" ry="34.63"/>
      <ellipse class="cls-1" cx="37.09" cy="37.97" rx="35.62" ry="12.84"/>
      <ellipse class="cls-1" cx="37.09" cy="71.72" rx="35.62" ry="21.66"/>
      <ellipse class="cls-1" cx="37.09" cy="16.42" rx="36.1" ry="8.34"/>
      <ellipse class="cls-1" cx="37.09" cy="4.17" rx="36.1" ry="4.17"/>
      <ellipse class="cls-1" cx="107.5" cy="121.06" rx="36.1" ry="28.16"/>
      <ellipse class="cls-1" cx="106.06" cy="183.8" rx="35.62" ry="34.63"/>
      <ellipse class="cls-1" cx="107.53" cy="37.97" rx="35.62" ry="12.84"/>
      <ellipse class="cls-1" cx="107.53" cy="71.72" rx="35.62" ry="21.66"/>
      <ellipse class="cls-1" cx="107.53" cy="16.42" rx="36.1" ry="8.34"/>
      <ellipse class="cls-1" cx="107.53" cy="4.17" rx="36.1" ry="4.17"/>
      <ellipse class="cls-1" cx="177.94" cy="121.06" rx="36.1" ry="28.16"/>
      <ellipse class="cls-1" cx="176.5" cy="183.8" rx="35.62" ry="34.63"/>
      <ellipse class="cls-1" cx="177.97" cy="37.97" rx="35.62" ry="12.84"/>
      <ellipse class="cls-1" cx="177.97" cy="71.72" rx="35.62" ry="21.66"/>
      <ellipse class="cls-1" cx="177.97" cy="16.42" rx="36.1" ry="8.34"/>
      <ellipse class="cls-1" cx="177.97" cy="4.17" rx="36.1" ry="4.17"/>
    </g>
  </g>
</svg>