<?xml version="1.0" encoding="UTF-8"?>
<svg id="Layer_2" data-name="Layer 2" xmlns="http://www.w3.org/2000/svg" viewBox="0 0 14.58 22.85">
  <defs>
    <style>
      .cls-1 {
        fill: #e95536;
      }
    </style>
  </defs>
  <g id="Layer_2-2" data-name="Layer 2">
    <path class="cls-1" d="M12.02,1.48c0-.69.59-1.28,1.28-1.28s1.28.59,1.28,1.28v17.23c0,2.35-1.93,4.14-4.28,4.14s-4.28-1.8-4.28-4.14V4.14c0-.97-.76-1.73-1.73-1.73s-1.73.76-1.73,1.73v17.23c0,.69-.59,1.28-1.28,1.28s-1.28-.59-1.28-1.28V4.14C0,1.79,1.93,0,4.28,0s4.28,1.8,4.28,4.14v14.57c0,.97.76,1.73,1.73,1.73s1.73-.76,1.73-1.73V1.48Z"/>
  </g>
</svg>