<?xml version="1.0" encoding="UTF-8"?>
<svg id="Layer_2" data-name="Layer 2" xmlns="http://www.w3.org/2000/svg" viewBox="0 0 17.07 22.85">
  <defs>
    <style>
      .cls-1 {
        fill: #231f20;
      }
    </style>
  </defs>
  <g id="Layer_2-2" data-name="Layer 2">
    <path class="cls-1" d="M14.07,1.48c0-.69.69-1.28,1.5-1.28s1.5.59,1.5,1.28v17.23c0,2.35-2.26,4.14-5.01,4.14s-5.01-1.8-5.01-4.14V4.14c0-.97-.89-1.73-2.03-1.73s-2.03.76-2.03,1.73v17.23c0,.69-.69,1.28-1.5,1.28s-1.5-.59-1.5-1.28V4.14C0,1.79,2.26,0,5.01,0s5.01,1.8,5.01,4.14v14.57c0,.97.89,1.73,2.03,1.73s2.03-.76,2.03-1.73V1.48Z"/>
  </g>
</svg>