<?xml version="1.0" encoding="UTF-8"?>
<svg id="Layer_2" data-name="Layer 2" xmlns="http://www.w3.org/2000/svg" viewBox="0 0 218.4 142.21">
  <defs>
    <style>
      .cls-1 {
        fill: #f6c92a;
      }
    </style>
  </defs>
  <g id="v5">
    <g>
      <path class="cls-1" d="M73.02,142.21c0-47.4,0-94.8,0-142.2C34.1-.29,2.17,30.27.11,66.99c-2.23,39.58,30.85,75.39,72.92,75.22Z"/>
      <path class="cls-1" d="M145.6,142.21c0-47.4,0-94.8,0-142.2-38.92-.29-70.85,30.27-72.92,66.99-2.23,39.58,30.85,75.39,72.92,75.22Z"/>
      <path class="cls-1" d="M218.4,142.21c0-47.4,0-94.8,0-142.2-38.92-.29-70.85,30.27-72.92,66.99-2.23,39.58,30.85,75.39,72.92,75.22Z"/>
    </g>
  </g>
</svg>